<svg width="174" height="45" viewBox="0 0 174 45" fill="none" xmlns="http://www.w3.org/2000/svg">
<path d="M63.3788 11.4519C63.3064 13.1742 62.9226 14.87 62.2452 16.4602C61.8006 17.5721 61.1131 18.5264 60.2622 19.3605C59.3654 20.187 58.3051 20.8234 57.1471 21.23C55.8775 21.6889 54.5337 21.9177 53.181 21.9052C52.3316 21.9052 51.5616 21.8648 50.9138 21.7462C50.1777 21.5936 49.4595 21.3674 48.7703 21.0711C49.6198 21.0305 50.3073 20.911 50.8328 20.7124C51.3707 20.5142 51.8653 20.2174 52.2903 19.8377C53.181 18.924 53.8685 17.7716 54.3543 16.4198C54.8799 15.0289 55.1228 13.7175 55.1228 12.4062C55.1192 11.6732 55.0517 10.9418 54.9211 10.2201C54.7592 9.50438 54.4765 8.94773 54.0717 8.51116C53.6256 8.03401 52.9778 7.83599 52.0887 7.83599H51.3996L45.7744 32.159H38.6895L43.3369 13.5405C43.9862 10.9388 43.5126 8.46611 42.0032 6.57558C41.3183 5.71805 40.4472 5.02144 39.4533 4.53656H52.5745C53.8288 4.53656 54.8799 4.57553 55.7308 4.61605C56.62 4.65509 57.39 4.6956 58.0378 4.81414C58.684 4.89363 59.2508 5.01371 59.6969 5.21173C60.1628 5.36254 60.6105 5.56278 61.0321 5.8089C61.8006 6.24554 62.3674 6.92073 62.7723 7.7954C63.2124 8.9645 63.4183 10.2061 63.3788 11.4519Z" fill="#11173B"/>
<path d="M79.8568 15.8638L80.99 10.8559C80.0187 10.6969 79.088 10.5778 78.2381 10.5778C76.0123 10.5778 73.8674 11.7303 72.8961 12.9624L73.3413 10.8559H66.2592L61.4434 32.159H68.5659L71.4797 19.3613C72.2082 16.6189 73.827 14.4727 76.9836 14.4727C77.8739 14.4727 79.3308 14.9099 79.8568 15.8638Z" fill="#11173B"/>
<path d="M99.2078 13.2404C97.6709 11.731 95.3645 10.9758 92.2886 10.9748C88.7274 10.9748 85.8949 11.9291 83.7087 13.8361C82.4544 14.9494 81.443 16.3808 80.6333 18.1287C79.8842 19.8687 79.4594 21.7267 79.379 23.6142C79.2568 26.4755 79.9458 28.6211 81.524 30.093C83.1022 31.5228 85.4896 32.238 88.6861 32.2385C89.9993 32.2453 91.307 32.0715 92.5712 31.7224C93.7252 31.3909 94.8181 30.8809 95.8086 30.2115C97.4618 29.0362 98.7958 27.4802 99.6937 25.6803C100.707 23.8122 101.232 21.8257 101.353 19.6786C101.475 16.8579 100.746 14.7108 99.2078 13.2404ZM93.9478 18.7259C93.8847 19.837 93.7221 20.9406 93.4619 22.0238C93.1793 23.2556 92.8554 24.3299 92.4505 25.2436C91.5598 27.3893 90.4268 28.462 89.0513 28.462C87.4318 28.462 86.6634 27.0711 86.7841 24.3299C86.865 23.017 87.027 21.7852 87.3509 20.6329C87.5981 19.5759 87.9644 18.5493 88.4432 17.5721C88.8165 16.7912 89.3228 16.0788 89.9404 15.4655C90.5485 14.9494 91.155 14.7108 91.7615 14.7108C93.3412 14.7108 94.0685 16.0626 93.9478 18.7259Z" fill="#11173B"/>
<path d="M122.357 26.9127C122.397 26.4358 122.438 25.9589 122.559 25.5218C122.559 25.4422 122.6 25.3628 122.6 25.2832L124.097 18.7254C124.371 17.5256 124.426 16.2875 124.259 15.0689C124.057 13.8765 123.49 12.8829 122.519 12.1277C121.102 11.2534 119.646 10.8559 118.229 10.9752C116.084 10.9752 114.263 11.5714 112.725 12.8432L113.13 10.9355H106.048L101.232 32.159H108.355L111.714 17.2946C111.974 16.7454 112.315 16.2366 112.725 15.7842C113.373 15.0292 114.142 14.6714 115.032 14.6714C116.286 14.6714 116.975 15.3869 117.056 16.8177C117.057 17.7804 116.948 18.7403 116.732 19.6793L115.153 26.5154C114.993 27.1795 114.911 27.8598 114.911 28.5424C114.911 29.7346 115.275 30.6488 116.044 31.2847C116.772 31.9206 117.824 32.1989 119.2 32.1989C120.657 32.1989 121.912 31.8411 123.004 31.1257C124.097 30.4103 124.947 29.2974 125.554 27.7872C124.962 28.0202 124.33 28.1415 123.692 28.1448C122.802 28.1448 122.357 27.7475 122.357 26.9127Z" fill="#11173B"/>
<path d="M135.307 26.9525C135.309 26.4689 135.377 25.9876 135.509 25.5217C135.509 25.4422 135.549 25.3628 135.549 25.2832L137.978 14.5919H141.458L142.267 10.9354H138.787L139.92 6.00708H132.798L131.664 10.9354H128.872L128.063 14.5919H130.855L128.103 26.555C127.924 27.2167 127.829 27.8975 127.82 28.582C127.82 29.7743 128.225 30.6488 128.994 31.2847C129.722 31.9206 130.774 32.1988 132.15 32.1988C133.607 32.1988 134.862 31.841 135.954 31.1257C137.006 30.4102 137.897 29.2974 138.504 27.8269C137.9 28.0185 137.275 28.1386 136.642 28.1845C135.752 28.1845 135.307 27.7474 135.307 26.9525Z" fill="#11173B"/>
<path d="M160.842 13.2404C159.304 11.731 156.997 10.9758 153.922 10.9748C150.36 10.9748 147.528 11.9291 145.342 13.8361C144.087 14.9494 143.076 16.3808 142.266 18.1287C141.517 19.8687 141.092 21.7267 141.012 23.6142C140.891 26.4755 141.579 28.6211 143.157 30.093C144.735 31.5228 147.123 32.238 150.321 32.2385C151.634 32.245 152.942 32.0713 154.206 31.7224C155.36 31.3903 156.452 30.8803 157.443 30.2115C159.021 29.0982 160.357 27.5888 161.328 25.6803C162.34 23.8122 162.865 21.8257 162.987 19.6786C163.108 16.8579 162.379 14.7108 160.842 13.2404ZM155.581 18.7259C155.519 19.8372 155.357 20.9409 155.095 22.0238C154.812 23.2556 154.488 24.3299 154.084 25.2436C153.193 27.3893 152.06 28.462 150.684 28.462C149.065 28.462 148.296 27.0711 148.419 24.3299C148.5 23.017 148.662 21.7852 148.984 20.6329C149.268 19.4806 149.632 18.4468 150.078 17.5721C150.45 16.7906 150.956 16.078 151.575 15.4655C152.182 14.9494 152.79 14.7108 153.396 14.7108C154.974 14.7108 155.703 16.0626 155.581 18.7259Z" fill="#11173B"/>
<path d="M31.611 5.30846H6.52978C3.99369 5.30846 2.42927 3.34141 3.03426 0.91376C3.11365 0.599532 3.22365 0.293536 3.36273 0C1.82885 1.22135 0.658592 2.88381 0.201793 4.7113C-0.517791 7.59207 0.739569 10.0543 3.13815 11.043C3.92097 11.3573 4.75981 11.5149 5.60548 11.5066H12.1611L9.01851 24.0891L7.80851 28.9369H14.1548C14.9569 28.9369 15.788 28.4417 16.2158 27.7125L19.2316 22.5541H22.8952C23.7079 22.5541 24.5513 22.0455 24.9729 21.2998L30.34 11.8037L27.6771 22.4716C27.234 24.2481 25.3671 25.69 23.5093 25.69H20.906L20.605 26.8961C20.2285 28.405 19.3474 29.7462 18.1028 30.7052C16.8581 31.6641 15.3219 32.1853 13.74 32.1853H9.77441C8.98211 32.1853 8.2127 32.4463 7.58929 32.9265C6.96589 33.4067 6.52452 34.0784 6.3358 34.8342L4.49633 42.2005H16.7826L18.2156 36.4659V36.4644C18.2608 36.1685 18.3334 35.8772 18.4326 35.5942C18.7806 34.5993 19.4364 33.7361 20.3082 33.1249C21.18 32.5138 22.2243 32.1853 23.2954 32.1853H33.093L37.8458 13.1481C38.926 8.81943 36.1363 5.30846 31.611 5.30846ZM16.7199 14.5945L13.941 17.4978L15.3664 12.0798C15.3664 12.0798 18.0705 12.3904 16.7199 14.5945Z" fill="#9BDD01"/>
<path d="M121.557 39.3849C121.226 39.1981 120.848 39.105 120.466 39.1161C120.049 39.1127 119.638 39.2047 119.264 39.3849C118.898 39.5611 118.577 39.8154 118.325 40.1293C118.068 40.4469 117.894 40.8215 117.819 41.2203C117.736 41.5824 117.763 41.9604 117.897 42.3075C118.023 42.6205 118.249 42.8846 118.542 43.0595C118.874 43.2499 119.253 43.3445 119.637 43.3323C120.053 43.3346 120.463 43.2412 120.835 43.0595C121.202 42.8826 121.523 42.6269 121.775 42.3114C122.03 41.9928 122.202 41.6184 122.277 41.2203C122.362 40.8563 122.337 40.4756 122.205 40.1254C122.078 39.8149 121.851 39.5545 121.557 39.3849ZM121.492 41.2203C121.441 41.498 121.326 41.7605 121.155 41.9879C120.994 42.2032 120.784 42.3781 120.541 42.4983C120.301 42.6176 120.035 42.679 119.766 42.6776C119.519 42.6852 119.276 42.623 119.065 42.4983C118.872 42.3783 118.725 42.1987 118.647 41.9879C118.559 41.7412 118.544 41.4751 118.604 41.2203C118.654 40.941 118.773 40.6776 118.949 40.4526C119.114 40.2425 119.325 40.0709 119.565 39.95C119.804 39.8307 120.069 39.7692 120.337 39.7708C120.584 39.7637 120.829 39.8259 121.042 39.95C121.234 40.0666 121.381 40.2438 121.457 40.4526C121.54 40.7005 121.553 40.9661 121.492 41.2203Z" fill="#11173B"/>
<path d="M130.179 39.311C129.905 39.1735 129.599 39.1065 129.291 39.1161C128.924 39.1116 128.56 39.189 128.228 39.3423C127.997 39.4484 127.789 39.597 127.616 39.7799L127.738 39.1552H127.006L127.006 39.1544H126.235C126.431 39.3406 126.578 39.5721 126.66 39.8278C126.742 40.0836 126.758 40.3554 126.707 40.6188L126.183 43.2855H126.959L127.377 41.158C127.424 40.8863 127.531 40.6282 127.692 40.4021C127.836 40.204 128.03 40.0456 128.255 39.9422C128.491 39.8362 128.747 39.783 129.006 39.7863C129.373 39.7863 129.637 39.8876 129.8 40.0902C129.962 40.293 130.004 40.5944 129.925 40.9943L129.475 43.2855H130.252L130.719 40.9086C130.799 40.5033 130.789 40.1682 130.69 39.9033C130.601 39.6501 130.419 39.4388 130.179 39.311Z" fill="#11173B"/>
<path d="M138.552 39.3814C138.235 39.1961 137.871 39.1041 137.503 39.1162C137.101 39.1144 136.705 39.2066 136.346 39.3851C135.988 39.5619 135.675 39.8164 135.431 40.1294C135.181 40.4497 135.012 40.8236 134.938 41.2205C134.854 41.5834 134.879 41.9626 135.011 42.3116C135.139 42.6273 135.372 42.8911 135.673 43.0597C136.026 43.2516 136.425 43.3459 136.829 43.3325C137.17 43.335 137.509 43.2769 137.829 43.1609C138.134 43.0503 138.414 42.8807 138.651 42.6622L138.317 42.1789C138.136 42.3404 137.926 42.4673 137.698 42.5531C137.469 42.6371 137.226 42.6794 136.982 42.6778C136.709 42.6862 136.44 42.6244 136.2 42.4985C135.993 42.3875 135.833 42.21 135.744 41.9959C135.677 41.8289 135.649 41.649 135.664 41.4699H139.144C139.157 41.4336 139.168 41.3946 139.179 41.3528C139.19 41.3115 139.199 41.275 139.205 41.2437C139.292 40.8733 139.274 40.4868 139.154 40.1255C139.045 39.8175 138.833 39.555 138.552 39.3814ZM136.625 39.9229C136.858 39.8059 137.117 39.7457 137.379 39.7475C137.622 39.739 137.861 39.7999 138.069 39.9229C138.252 40.0376 138.39 40.2091 138.463 40.4099C138.523 40.5773 138.543 40.7559 138.523 40.9322H135.767C135.826 40.7456 135.916 40.5703 136.035 40.4139C136.19 40.2075 136.392 40.0394 136.625 39.9229Z" fill="#11173B"/>
<path d="M152.59 42.1227L149.991 38.0576H148.56C148.759 38.2458 148.907 38.4797 148.99 38.7381C149.073 38.9965 149.089 39.2712 149.037 39.5374L148.256 43.5129H149.065L149.863 39.448L152.463 43.5129H153.126L154.198 38.0576H153.389L152.59 42.1227Z" fill="#11173B"/>
<path d="M161.695 39.3849C161.364 39.1981 160.986 39.105 160.604 39.1161C160.187 39.1127 159.776 39.2047 159.402 39.3849C159.036 39.5611 158.715 39.8154 158.463 40.1293C158.206 40.4469 158.032 40.8215 157.957 41.2203C157.874 41.5824 157.901 41.9604 158.035 42.3075C158.161 42.6205 158.387 42.8846 158.68 43.0595C159.012 43.2499 159.391 43.3445 159.775 43.3323C160.191 43.3346 160.601 43.2412 160.974 43.0595C161.34 42.8826 161.661 42.6269 161.914 42.3114C162.168 41.9928 162.34 41.6184 162.415 41.2203C162.5 40.8563 162.475 40.4756 162.343 40.1254C162.217 39.8149 161.989 39.5545 161.695 39.3849ZM161.63 41.2203C161.579 41.498 161.464 41.7605 161.293 41.9879C161.133 42.2032 160.922 42.3781 160.68 42.4983C160.439 42.6176 160.173 42.679 159.904 42.6776C159.658 42.6852 159.414 42.623 159.203 42.4983C159.01 42.3783 158.863 42.1987 158.785 41.9879C158.698 41.7412 158.683 41.4751 158.742 41.2203C158.793 40.941 158.911 40.6776 159.087 40.4526C159.252 40.2425 159.463 40.0709 159.704 39.95C159.943 39.8307 160.207 39.7692 160.475 39.7708C160.723 39.7637 160.967 39.8259 161.18 39.95C161.372 40.0666 161.519 40.2438 161.595 40.4526C161.679 40.7005 161.691 40.9661 161.63 41.2203Z" fill="#11173B"/>
<path d="M172.804 39.1152L170.878 42.4156L170.256 39.1152H169.6L167.659 42.4051L167.06 39.1152H165.791C166.213 39.5158 166.498 40.0358 166.605 40.6029L167.106 43.2455H167.85L169.718 40.1164L170.342 43.2455H171.087L173.5 39.1152H172.804Z" fill="#11173B"/>
<path d="M105.069 37H103.581C103.728 37.139 103.824 37.3218 103.855 37.5202C103.886 37.7185 103.849 37.9212 103.751 38.0969L100.252 44.3398H101.741L101.734 44.3328C101.589 44.1935 101.495 44.0116 101.466 43.8149C101.437 43.6182 101.474 43.4175 101.571 43.2433L105.069 37Z" fill="#11173B"/>
<path d="M113.881 39.3588C113.705 38.9488 113.392 38.6103 112.993 38.3993C112.576 38.1709 112.066 38.057 111.462 38.0576H108.304C108.504 38.2467 108.652 38.4819 108.736 38.7417C108.82 39.0015 108.836 39.2777 108.784 39.5453L108.005 43.512H110.391C110.965 43.5187 111.533 43.4021 112.055 43.1703C112.547 42.9517 112.981 42.6231 113.321 42.2108C113.66 41.7968 113.888 41.3064 113.986 40.7839C114.092 40.244 114.056 39.7695 113.881 39.3588ZM113.177 40.7839C113.103 41.1756 112.933 41.5437 112.683 41.8567C112.432 42.166 112.11 42.4128 111.743 42.5772C111.345 42.7531 110.913 42.8408 110.476 42.8339H108.946L109.752 38.7356H111.28C111.686 38.7205 112.088 38.8089 112.448 38.9923C112.744 39.1501 112.976 39.4033 113.104 39.7093C113.235 40.0529 113.26 40.4265 113.177 40.7839Z" fill="#11173B"/>
<path d="M65.6878 37.6709C65.3013 37.5075 64.8826 37.4303 64.4621 37.4449H61.524C61.7128 37.6238 61.8531 37.8462 61.9322 38.0919C62.0113 38.3375 62.0267 38.5987 61.977 38.8517L61.1816 42.9002H61.9906L62.3167 41.2403H63.7165C63.8409 41.2403 63.9616 41.2355 64.0788 41.226L64.9679 42.9002H65.8497L64.863 41.0703C64.9192 41.052 64.977 41.0356 65.0309 41.0143C65.3929 40.8762 65.7148 40.6527 65.9679 40.3635C66.2165 40.0717 66.383 39.7211 66.4508 39.3465C66.5333 39.0061 66.5044 38.6488 66.3683 38.3254C66.2293 38.0338 65.9876 37.8013 65.6878 37.6709ZM65.6417 39.3465C65.6112 39.5279 65.5443 39.7016 65.445 39.8574C65.3456 40.0132 65.2158 40.1482 65.063 40.2544C64.7537 40.47 64.3401 40.5779 63.8223 40.5779H62.4469L62.9292 38.123H64.3046C64.8223 38.123 65.1937 38.2295 65.4189 38.4426C65.644 38.6556 65.7183 38.9569 65.6417 39.3465Z" fill="#11173B"/>
<path d="M71.7331 37.0008C71.586 36.9994 71.4431 37.0491 71.3296 37.1411C71.2155 37.2277 71.1377 37.3524 71.111 37.4916C71.0961 37.5511 71.0958 37.6132 71.1101 37.6728C71.1244 37.7324 71.1529 37.7879 71.1933 37.8346C71.2369 37.8822 71.2909 37.9196 71.3512 37.9439C71.4116 37.9682 71.4767 37.9788 71.5418 37.9749C71.6885 37.9755 71.831 37.9262 71.9447 37.8352C72.0585 37.7442 72.1366 37.6173 72.1658 37.4761C72.1807 37.4172 72.181 37.3556 72.1665 37.2966C72.1521 37.2376 72.1233 37.1828 72.0827 37.137C72.0382 37.0905 71.9838 37.0542 71.9234 37.0307C71.863 37.0071 71.798 36.9969 71.7331 37.0008Z" fill="#11173B"/>
<path d="M79.7319 39.4036C79.6138 39.2091 79.4434 39.0505 79.2394 38.9451C78.942 38.7968 78.6117 38.7232 78.2782 38.7307C77.8771 38.7277 77.4803 38.813 77.117 38.9801C76.763 39.1425 76.4508 39.3809 76.2032 39.6777C75.9511 39.9805 75.7814 40.3411 75.71 40.7259C75.6284 41.0741 75.6571 41.4385 75.7922 41.7702C75.9206 42.0675 76.1448 42.3153 76.4304 42.4754C76.7549 42.6521 77.1219 42.7395 77.4927 42.7286C77.854 42.7297 78.2112 42.654 78.5398 42.5065C78.7708 42.4022 78.9819 42.2599 79.1643 42.0859L79.0993 42.4169C79.0074 42.8845 78.8204 43.2326 78.5382 43.4612C78.2559 43.6897 77.8613 43.8041 77.3544 43.8041C77.0528 43.8069 76.7531 43.7581 76.4685 43.6599C76.2215 43.5791 75.9963 43.4446 75.8096 43.2664L75.3242 43.8431C75.5514 44.0601 75.8309 44.217 76.1366 44.299C76.4973 44.4073 76.8727 44.4611 77.2499 44.4588C77.9782 44.4588 78.5647 44.2874 79.0096 43.9445C79.4543 43.6015 79.7482 43.0663 79.8913 42.339L80.5925 38.7698H79.8563L79.7319 39.4036ZM78.5045 41.9027C78.2563 42.018 77.9848 42.0766 77.7103 42.0741C77.4556 42.0816 77.2034 42.0225 76.9796 41.9027C76.7853 41.7962 76.633 41.6288 76.5473 41.4272C76.4585 41.2039 76.4402 40.9595 76.4948 40.7259C76.5431 40.4689 76.6558 40.2278 76.8229 40.0244C76.9888 39.8222 77.2006 39.6608 77.4412 39.5531C77.6913 39.4403 77.9635 39.3831 78.2386 39.3854C78.4919 39.3777 78.7428 39.4355 78.9661 39.5531C79.1593 39.6581 79.3106 39.8242 79.3954 40.0244C79.4842 40.2478 79.5024 40.4922 79.4478 40.7259C79.3995 40.9828 79.2868 41.2238 79.1198 41.4272C78.954 41.6294 78.7436 41.792 78.5045 41.9027Z" fill="#11173B"/>
<path d="M89.0045 39.5179C88.9156 39.2647 88.7335 39.0535 88.4939 38.9256C88.2193 38.7882 87.9138 38.7211 87.6058 38.7307C87.2383 38.7263 86.8746 38.8036 86.542 38.9569C86.3287 39.0563 86.135 39.1918 85.9699 39.3574L86.4098 37.1176H85.0231C85.1809 37.2672 85.2983 37.4532 85.3645 37.6587C85.4306 37.8642 85.4435 38.0826 85.4019 38.2942L84.4971 42.9001H85.2737L85.6918 40.7727C85.7384 40.501 85.8458 40.2428 86.0061 40.0167C86.1508 39.8186 86.3449 39.6603 86.5697 39.5568C86.8051 39.4509 87.0616 39.3976 87.3205 39.4009C87.6873 39.4009 87.9518 39.5022 88.1142 39.7048C88.2766 39.9076 88.3185 40.209 88.2398 40.609L87.7897 42.9001H88.5664L89.0335 40.5233C89.1131 40.118 89.1034 39.7829 89.0045 39.5179Z" fill="#11173B"/>
<path d="M95.1221 37.8659H94.3454L94.1678 38.7698H93.4397L93.3188 39.3854H94.0468L93.6013 41.6533C93.5197 42.069 93.5756 42.3885 93.769 42.6118C93.9624 42.8351 94.2749 42.9468 94.7064 42.947C94.8846 42.9468 95.0621 42.9232 95.2339 42.8768C95.402 42.8326 95.5605 42.7587 95.7015 42.6586L95.5643 42.1209C95.3757 42.2512 95.15 42.3194 94.9194 42.3156C94.7037 42.3156 94.5495 42.256 94.4569 42.1366C94.3645 42.0171 94.3402 41.8455 94.3841 41.622L94.8235 39.3854H96.0533L96.1742 38.7698H94.9445L95.1221 37.8659Z" fill="#11173B"/>
<path d="M70.9975 38.7698H70.401C70.5554 38.9161 70.6701 39.098 70.7348 39.299C70.7995 39.4999 70.8121 39.7135 70.7714 39.9204L70.186 42.9002H70.9627L71.7742 38.7698H70.9975Z" fill="#11173B"/>
<path d="M35.0519 38.9996C34.7202 38.8127 34.3424 38.7196 33.9602 38.7307C33.5437 38.7273 33.1322 38.8194 32.7584 38.9996C32.3927 39.1757 32.0719 39.4301 31.8194 39.7439C31.5625 40.0615 31.3889 40.4361 31.3138 40.835C31.2308 41.197 31.2577 41.575 31.3914 41.9221C31.5173 42.2351 31.7438 42.4992 32.0366 42.6741C32.3682 42.8645 32.7478 42.9591 33.1318 42.9469C33.5474 42.9492 33.9579 42.8558 34.3301 42.6741C34.6966 42.4972 35.0179 42.2415 35.27 41.926C35.5244 41.6074 35.6964 41.233 35.7715 40.835C35.8568 40.4709 35.8318 40.0902 35.6994 39.74C35.573 39.4296 35.3453 39.1691 35.0519 38.9996ZM34.9869 40.835C34.9354 41.1127 34.8201 41.3752 34.6499 41.6025C34.489 41.8178 34.2787 41.9927 34.036 42.113C33.7955 42.2322 33.5297 42.2936 33.2604 42.2922C33.0141 42.2999 32.7707 42.2376 32.5595 42.113C32.3666 41.9929 32.2197 41.8134 32.1418 41.6025C32.054 41.3558 32.039 41.0897 32.0986 40.835C32.1491 40.5556 32.2674 40.2922 32.4435 40.0672C32.6088 39.8571 32.8194 39.6855 33.0601 39.5647C33.299 39.4453 33.5635 39.3838 33.8315 39.3854C34.0791 39.3783 34.3236 39.4405 34.5366 39.5647C34.7288 39.6812 34.8751 39.8584 34.9516 40.0672C35.0351 40.3151 35.0473 40.5808 34.9869 40.835Z" fill="#11173B"/>
<path d="M43.675 38.9257C43.4005 38.7881 43.095 38.7211 42.787 38.7307C42.4195 38.7263 42.0558 38.8036 41.7232 38.9569C41.4926 39.0631 41.2849 39.2116 41.1113 39.3945L41.234 38.7698H40.5019L40.5021 38.7689H39.7305C39.9271 38.9552 40.0731 39.1867 40.1555 39.4425C40.2378 39.6983 40.2539 39.9702 40.2021 40.2335L39.6782 42.9002H40.4549L40.873 40.7727C40.9196 40.501 41.0269 40.2428 41.1873 40.0167C41.332 39.8186 41.5261 39.6602 41.7509 39.5568C41.9863 39.4508 42.2428 39.3976 42.5017 39.4009C42.8684 39.4009 43.133 39.5022 43.2953 39.7048C43.4578 39.9076 43.4997 40.209 43.421 40.6089L42.9709 42.9002H43.7476L44.2147 40.5232C44.2943 40.118 44.2846 39.7828 44.1857 39.5179C44.0968 39.2647 43.9146 39.0535 43.675 38.9257Z" fill="#11173B"/>
<path d="M52.0462 38.9959C51.7299 38.8106 51.366 38.7186 50.998 38.7307C50.596 38.7289 50.1993 38.8211 49.8407 38.9996C49.4823 39.1764 49.1695 39.4309 48.926 39.7439C48.6761 40.0642 48.5069 40.4381 48.4325 40.835C48.3483 41.1979 48.3737 41.5771 48.5054 41.9261C48.6335 42.2418 48.8669 42.5056 49.1674 42.6742C49.5205 42.8661 49.9199 42.9604 50.3233 42.947C50.6645 42.9495 51.0035 42.8914 51.3237 42.7754C51.6289 42.6648 51.9084 42.4952 52.1458 42.2767L51.812 41.7934C51.6309 41.9549 51.4208 42.0818 51.1924 42.1676C50.9633 42.2516 50.7206 42.2939 50.4762 42.2923C50.2041 42.3007 49.9345 42.2389 49.6943 42.113C49.488 42.002 49.3272 41.8245 49.2389 41.6104C49.1716 41.4434 49.144 41.2635 49.1582 41.0844H52.6389C52.6514 41.0481 52.6631 41.0091 52.6741 40.9673C52.6849 40.926 52.6933 40.8895 52.6995 40.8582C52.7862 40.4878 52.7685 40.1013 52.6483 39.74C52.5395 39.432 52.3272 39.1695 52.0462 38.9959ZM52.0172 40.5467H49.2617C49.3201 40.3601 49.4107 40.1848 49.5295 40.0284C49.6847 39.822 49.8866 39.6539 50.1194 39.5374C50.3529 39.4204 50.6117 39.3602 50.8739 39.362C51.1163 39.3535 51.3559 39.4144 51.5636 39.5374C51.7464 39.6521 51.885 39.8236 51.9574 40.0244C52.0173 40.1918 52.0377 40.3704 52.0172 40.5467Z" fill="#11173B"/>
<path d="M27.3765 38.7466C27.2003 38.3366 26.8867 37.998 26.4878 37.7871C26.0714 37.5587 25.5612 37.4448 24.9574 37.4453H21.7992C21.999 37.6345 22.1475 37.8696 22.2313 38.1294C22.315 38.3892 22.3314 38.6655 22.2788 38.9331L21.5 42.8997H23.8866C24.46 42.9064 25.0279 42.7898 25.5504 42.5581C26.0426 42.3394 26.4759 42.0108 26.8158 41.5985C27.1549 41.1848 27.383 40.6943 27.4792 40.1717C27.5855 39.6317 27.5513 39.1567 27.3765 38.7466ZM26.6717 40.1717C26.5973 40.5631 26.4278 40.9311 26.1777 41.2445C25.9266 41.5537 25.6049 41.8006 25.2386 41.965C24.8405 42.1409 24.4078 42.2285 23.9714 42.2217H22.441L23.2467 38.1234H24.7753C25.1807 38.1084 25.5831 38.1969 25.9434 38.3801C26.2395 38.5379 26.4713 38.7911 26.5995 39.0971C26.7301 39.4406 26.7552 39.8143 26.6717 40.1717Z" fill="#11173B"/>
</svg>
